Coordinates
version=1
nRows=6
nColumns=36
inDegrees=yes

Units are S.I. units (second, meters, Newtons, ...)
If the header above contains a line with 'inDegrees', this indicates whether rotational values are in degrees (yes) or radians (no).

endheader
time	pelvis_tilt	pelvis_list	pelvis_rotation	pelvis_tx	pelvis_ty	pelvis_tz	hip_flexion_r	hip_adduction_r	hip_rotation_r	knee_angle_r	knee_angle_r_beta	ankle_angle_r	subtalar_angle_r	mtp_angle_r	hip_flexion_l	hip_adduction_l	hip_rotation_l	knee_angle_l	knee_angle_l_beta	ankle_angle_l	subtalar_angle_l	mtp_angle_l	lumbar_extension	lumbar_bending	lumbar_rotation	arm_flex_r	arm_add_r	arm_rot_r	elbow_flex_r	pro_sup_r	arm_flex_l	arm_add_l	arm_rot_l	elbow_flex_l	pro_sup_l
      5.11250000	     -1.95714218	      1.60153694	      1.60662395	      0.22801597	      0.90998721	     -0.02595474	     -2.22433416	     -1.23734839	      0.40823656	      5.28348108	      0.09221414	      6.89063504	    -12.54649897	     -7.49999987	      0.23391055	     -4.52332283	     -7.99361928	      2.93673769	      0.05125574	      1.50107333	     -3.86387364	     -7.49999987	     -6.98489641	      0.82866429	     -3.37773449	      5.43779619	     -7.96328915	     15.78618263	     31.03419675	     79.46023103	    364.44397836	     -8.98394290	    365.24288756	     35.06592802	     77.86682687
      5.11666670	     -1.83456410	      1.62435076	      1.61106407	      0.22880279	      0.90770876	     -0.02773923	     -2.63316984	     -1.23610559	      0.49043934	      4.94798682	      0.08635866	      6.94511114	    -12.58990689	     -7.49999987	     -0.06364244	     -4.47616019	     -7.93147960	      2.78286898	      0.04857023	      1.64583711	     -3.86448248	     -7.49999987	     -7.05973869	      0.82441157	     -3.44111380	      5.12598286	     -7.93732761	     15.75530760	     30.67894852	     79.12835678	    363.69998508	     -8.74375887	    364.30395914	     35.35367931	     77.64863003
      5.12083330	     -1.94129436	      1.65932880	      1.64119843	      0.22862786	      0.90658228	     -0.02843730	     -2.70166420	     -1.27310921	      0.42472796	      4.75452793	      0.08298217	      7.13929182	    -12.45931323	     -7.49999987	     -0.07365042	     -4.40013795	     -7.82402401	      2.62860229	      0.04587776	      1.84908628	     -3.76879737	     -7.49999987	     -6.75015398	      0.82317595	     -3.07441925	      4.51425763	     -7.84233361	     14.34973293	     30.21483631	     81.03026668	    363.51087035	     -8.75524343	    365.50442748	     34.70746400	     79.77532491
      5.12500000	     -1.76049079	      1.67247122	      1.62167588	      0.22980044	      0.90457651	     -0.02646274	     -3.10873452	     -1.25046796	      0.59725588	      4.48022556	      0.07819469	      7.31809979	    -12.38409590	     -7.49999987	     -0.40649581	     -4.37324962	     -7.75898941	      2.47189709	      0.04314274	      2.03763490	     -3.77873133	     -7.49999987	     -6.89675075	      0.80321568	     -3.24055237	      4.41896421	     -7.76745066	     14.50059530	     29.64923735	     80.16564138	    362.66957388	     -8.54586685	    364.25649596	     35.13541722	     79.14722803
      5.12916670	     -1.93483028	      1.68966767	      1.61133260	      0.23062894	      0.90417795	     -0.02523971	     -3.12444769	     -1.25525821	      0.08477753	      4.27066649	      0.07453719	      7.88143325	    -11.33846954	     -7.49999987	     -0.32641928	     -4.36016626	     -7.84627132	      2.35387995	      0.04108296	      2.14646084	     -3.57364670	     -7.49999987	     -6.33762598	      0.74542257	     -2.95695009	      3.97388072	     -7.82025233	     15.21351383	     28.89068605	     77.37262331	    362.40636658	     -8.75430020	    366.13163311	     34.39204178	     77.17825252
      5.13333330	     -1.85012245	      1.64998185	      1.46055530	      0.23002745	      0.89840426	     -0.02473023	     -3.34824739	     -1.15805210	      0.25209064	      4.11170671	      0.07176282	      8.08076737	    -11.53479439	     -7.49999987	     -0.55241541	     -4.42044319	     -7.80290045	      2.22484178	      0.03883081	      2.36987966	     -3.71936753	     -7.49999987	     -6.23819313	      0.74432382	     -2.80671402	      3.61691268	     -7.88185273	     15.22315352	     28.66449951	     77.44104656	    361.88858797	     -8.81064324	    366.24736398	     34.26158489	     77.25806664
